<mxfile host="65bd71144e">
    <diagram id="Cqc6G51B0UrUN16AJAb3" name="Page-1">
        <mxGraphModel dx="1265" dy="1954" grid="1" gridSize="10" guides="1" tooltips="1" connect="1" arrows="1" fold="1" page="1" pageScale="1" pageWidth="827" pageHeight="1169" math="0" shadow="0">
            <root>
                <mxCell id="0"/>
                <mxCell id="1" parent="0"/>
                <mxCell id="118" value="StaticMap::SetPointsStatus()" style="swimlane;fontSize=18;labelBackgroundColor=none;fontColor=default;" parent="1" vertex="1">
                    <mxGeometry x="20" y="-690" width="600" height="660" as="geometry"/>
                </mxCell>
                <mxCell id="121" value="" style="edgeStyle=none;html=1;fontSize=14;labelBackgroundColor=none;fontColor=default;" parent="118" source="119" target="120" edge="1">
                    <mxGeometry relative="1" as="geometry"/>
                </mxCell>
                <mxCell id="119" value="&lt;pre style=&quot;font-family: &amp;quot;jetbrains mono&amp;quot;, monospace; font-size: 9pt;&quot;&gt;&lt;span style=&quot;font-family: helvetica; font-size: 14px;&quot;&gt;boxes&lt;/span&gt;&lt;br&gt;&lt;/pre&gt;" style="shape=parallelogram;perimeter=parallelogramPerimeter;whiteSpace=wrap;html=1;fixedSize=1;fontSize=14;labelBackgroundColor=none;fontColor=default;" parent="118" vertex="1">
                    <mxGeometry x="24" y="53" width="120" height="30" as="geometry"/>
                </mxCell>
                <mxCell id="123" value="" style="edgeStyle=none;html=1;fontSize=14;labelBackgroundColor=none;fontColor=default;" parent="118" source="120" target="122" edge="1">
                    <mxGeometry relative="1" as="geometry"/>
                </mxCell>
                <mxCell id="120" value="box : boxes" style="whiteSpace=wrap;html=1;fontSize=14;labelBackgroundColor=none;fontColor=default;" parent="118" vertex="1">
                    <mxGeometry x="363" y="48" width="120" height="40" as="geometry"/>
                </mxCell>
                <mxCell id="125" value="" style="edgeStyle=none;html=1;fontSize=14;labelBackgroundColor=none;fontColor=default;entryX=0.5;entryY=0;entryDx=0;entryDy=0;" parent="118" source="122" edge="1" target="126">
                    <mxGeometry relative="1" as="geometry">
                        <mxPoint x="423" y="298" as="targetPoint"/>
                    </mxGeometry>
                </mxCell>
                <mxCell id="122" value="&lt;pre style=&quot;font-family: &amp;quot;jetbrains mono&amp;quot;, monospace; font-size: 9pt;&quot;&gt;statuses.push_back({&lt;/pre&gt;&lt;pre style=&quot;font-family: &amp;quot;jetbrains mono&amp;quot;, monospace; font-size: 9pt;&quot;&gt;&lt;span style=&quot;&quot;&gt;true, true, false, false&lt;/span&gt;})&lt;span style=&quot;&quot;&gt;;&lt;/span&gt;&lt;/pre&gt;" style="whiteSpace=wrap;html=1;fontSize=14;labelBackgroundColor=none;fontColor=default;" parent="118" vertex="1">
                    <mxGeometry x="313" y="128" width="220" height="50" as="geometry"/>
                </mxCell>
                <mxCell id="128" value="" style="edgeStyle=orthogonalEdgeStyle;html=1;fontSize=14;labelBackgroundColor=none;fontColor=default;exitX=0;exitY=0.5;exitDx=0;exitDy=0;rounded=0;entryX=0.473;entryY=0.012;entryDx=0;entryDy=0;entryPerimeter=0;" parent="118" source="126" edge="1" target="127">
                    <mxGeometry relative="1" as="geometry">
                        <mxPoint x="293" y="347.5" as="targetPoint"/>
                    </mxGeometry>
                </mxCell>
                <mxCell id="218" value="Y" style="edgeLabel;html=1;align=center;verticalAlign=middle;resizable=0;points=[];fontColor=default;" vertex="1" connectable="0" parent="128">
                    <mxGeometry x="-0.4892" y="-1" relative="1" as="geometry">
                        <mxPoint as="offset"/>
                    </mxGeometry>
                </mxCell>
                <mxCell id="126" value="&lt;pre style=&quot;font-family: &amp;quot;jetbrains mono&amp;quot;, monospace;&quot;&gt;&lt;font style=&quot;font-size: 14px&quot;&gt;Close2Boundary(box)&lt;/font&gt;&lt;/pre&gt;" style="rhombus;whiteSpace=wrap;html=1;fontSize=14;labelBackgroundColor=none;fontColor=default;" parent="118" vertex="1">
                    <mxGeometry x="320.5" y="208" width="205" height="51" as="geometry"/>
                </mxCell>
                <mxCell id="219" style="edgeStyle=orthogonalEdgeStyle;rounded=0;html=1;exitX=0.5;exitY=1;exitDx=0;exitDy=0;entryX=0;entryY=0.5;entryDx=0;entryDy=0;labelBackgroundColor=none;fontColor=default;strokeColor=#000000;elbow=vertical;" edge="1" parent="118" source="127" target="153">
                    <mxGeometry relative="1" as="geometry"/>
                </mxCell>
                <mxCell id="127" value="status={false,false,false,false}" style="whiteSpace=wrap;html=1;fontSize=14;labelBackgroundColor=none;fontColor=default;" parent="118" vertex="1">
                    <mxGeometry x="168" y="277" width="150" height="40.5" as="geometry"/>
                </mxCell>
                <mxCell id="137" value="" style="edgeStyle=none;html=1;fontSize=14;labelBackgroundColor=none;fontColor=default;exitX=0.5;exitY=1;exitDx=0;exitDy=0;entryX=0.5;entryY=0;entryDx=0;entryDy=0;" parent="118" source="135" target="136" edge="1">
                    <mxGeometry relative="1" as="geometry"/>
                </mxCell>
                <mxCell id="221" value="Y" style="edgeLabel;html=1;align=center;verticalAlign=middle;resizable=0;points=[];fontColor=default;" vertex="1" connectable="0" parent="137">
                    <mxGeometry x="-0.508" relative="1" as="geometry">
                        <mxPoint as="offset"/>
                    </mxGeometry>
                </mxCell>
                <mxCell id="135" value="distanceX &amp;gt;&amp;nbsp;&lt;br&gt;&lt;pre style=&quot;font-family: &amp;quot;jetbrains mono&amp;quot;, monospace;&quot;&gt;&lt;font style=&quot;font-size: 14px&quot;&gt;MAX_POINT_MACHINE&lt;/font&gt;&lt;/pre&gt;" style="rhombus;whiteSpace=wrap;html=1;fontSize=14;labelBackgroundColor=none;fontColor=default;" parent="118" vertex="1">
                    <mxGeometry x="313" y="308" width="220" height="90.5" as="geometry"/>
                </mxCell>
                <mxCell id="136" value="&lt;pre style=&quot;font-family: &amp;#34;jetbrains mono&amp;#34; , monospace&quot;&gt;&lt;font style=&quot;font-size: 14px&quot;&gt;statuses&lt;span&gt;[&lt;/span&gt;i&lt;span&gt;][&lt;/span&gt;j&lt;span&gt;] &lt;/span&gt;&lt;/font&gt;= &lt;span style=&quot;white-space: normal&quot;&gt;false;&lt;/span&gt;&lt;/pre&gt;" style="whiteSpace=wrap;html=1;fontSize=14;labelBackgroundColor=none;fontColor=default;" parent="118" vertex="1">
                    <mxGeometry x="318" y="443" width="210" height="37" as="geometry"/>
                </mxCell>
                <mxCell id="220" style="edgeStyle=orthogonalEdgeStyle;rounded=0;html=1;exitX=0.5;exitY=1;exitDx=0;exitDy=0;labelBackgroundColor=none;fontColor=default;strokeColor=#000000;elbow=vertical;" edge="1" parent="118" source="153" target="140">
                    <mxGeometry relative="1" as="geometry"/>
                </mxCell>
                <mxCell id="153" value="box == boxes.end" style="rhombus;whiteSpace=wrap;html=1;fontSize=14;labelBackgroundColor=none;fontColor=default;" parent="118" vertex="1">
                    <mxGeometry x="353" y="512" width="140" height="60" as="geometry"/>
                </mxCell>
                <mxCell id="154" value="" style="endArrow=classic;html=1;fontSize=14;exitX=0.5;exitY=1;exitDx=0;exitDy=0;labelBackgroundColor=none;fontColor=default;" parent="118" source="136" target="153" edge="1">
                    <mxGeometry width="50" height="50" relative="1" as="geometry">
                        <mxPoint x="473" y="898" as="sourcePoint"/>
                        <mxPoint x="523" y="848" as="targetPoint"/>
                    </mxGeometry>
                </mxCell>
                <mxCell id="159" value="" style="endArrow=classic;html=1;fontSize=14;exitX=0;exitY=0.5;exitDx=0;exitDy=0;labelBackgroundColor=none;fontColor=default;entryX=0;entryY=0.5;entryDx=0;entryDy=0;edgeStyle=orthogonalEdgeStyle;rounded=0;" parent="118" source="153" edge="1" target="120">
                    <mxGeometry width="50" height="50" relative="1" as="geometry">
                        <mxPoint x="364" y="608" as="sourcePoint"/>
                        <mxPoint x="144" y="57" as="targetPoint"/>
                        <Array as="points">
                            <mxPoint x="150" y="542"/>
                            <mxPoint x="150" y="68"/>
                        </Array>
                    </mxGeometry>
                </mxCell>
                <mxCell id="214" value="N" style="edgeLabel;html=1;align=center;verticalAlign=middle;resizable=0;points=[];fontColor=default;" vertex="1" connectable="0" parent="159">
                    <mxGeometry x="-0.7536" y="3" relative="1" as="geometry">
                        <mxPoint as="offset"/>
                    </mxGeometry>
                </mxCell>
                <mxCell id="132" value="" style="edgeStyle=none;html=1;fontSize=14;labelBackgroundColor=none;fontColor=default;exitX=0.5;exitY=1;exitDx=0;exitDy=0;entryX=0.5;entryY=0;entryDx=0;entryDy=0;" parent="118" source="126" edge="1" target="135">
                    <mxGeometry relative="1" as="geometry">
                        <mxPoint x="423" y="318" as="targetPoint"/>
                        <mxPoint x="422.66999999999996" y="268" as="sourcePoint"/>
                    </mxGeometry>
                </mxCell>
                <mxCell id="217" value="N" style="edgeLabel;html=1;align=center;verticalAlign=middle;resizable=0;points=[];fontColor=default;" vertex="1" connectable="0" parent="132">
                    <mxGeometry x="-0.6315" relative="1" as="geometry">
                        <mxPoint as="offset"/>
                    </mxGeometry>
                </mxCell>
                <mxCell id="140" value="statuses" style="shape=parallelogram;perimeter=parallelogramPerimeter;whiteSpace=wrap;html=1;fixedSize=1;fontSize=14;labelBackgroundColor=none;fontColor=default;" parent="118" vertex="1">
                    <mxGeometry x="363" y="602" width="120" height="30" as="geometry"/>
                </mxCell>
                <mxCell id="161" value="StaticMap::Bind" style="swimlane;fontSize=18;labelBackgroundColor=none;fontColor=default;" parent="1" vertex="1">
                    <mxGeometry x="880" y="-1085.83" width="660" height="300" as="geometry"/>
                </mxCell>
                <mxCell id="162" value="&lt;pre style=&quot;font-family: &amp;quot;jetbrains mono&amp;quot;, monospace;&quot;&gt;&lt;font style=&quot;font-size: 14px&quot;&gt;boxesDesk&lt;/font&gt;&lt;/pre&gt;" style="shape=parallelogram;perimeter=parallelogramPerimeter;whiteSpace=wrap;html=1;fixedSize=1;fontSize=14;labelBackgroundColor=none;fontColor=default;" parent="161" vertex="1">
                    <mxGeometry x="46" y="60" width="120" height="40" as="geometry"/>
                </mxCell>
                <mxCell id="165" value="" style="endArrow=classic;html=1;fontSize=14;exitX=1;exitY=0.5;exitDx=0;exitDy=0;labelBackgroundColor=none;fontColor=default;entryX=0;entryY=0.5;entryDx=0;entryDy=0;" parent="161" source="162" edge="1" target="167">
                    <mxGeometry width="50" height="50" relative="1" as="geometry">
                        <mxPoint x="343" y="-10" as="sourcePoint"/>
                        <mxPoint x="233" y="90" as="targetPoint"/>
                    </mxGeometry>
                </mxCell>
                <mxCell id="167" value="&lt;pre style=&quot;font-family: &amp;#34;jetbrains mono&amp;#34; , monospace&quot;&gt;&lt;span style=&quot;font-size: medium ; white-space: normal&quot;&gt;BoxesObjectsIOU&lt;/span&gt;&lt;br&gt;&lt;/pre&gt;" style="rounded=0;whiteSpace=wrap;html=1;fontSize=14;labelBackgroundColor=none;fontColor=default;" parent="161" vertex="1">
                    <mxGeometry x="233" y="60" width="160" height="40" as="geometry"/>
                </mxCell>
                <mxCell id="222" style="edgeStyle=orthogonalEdgeStyle;rounded=0;html=1;exitX=0.5;exitY=1;exitDx=0;exitDy=0;entryX=0;entryY=0.5;entryDx=0;entryDy=0;labelBackgroundColor=none;fontSize=18;fontColor=default;strokeColor=#000000;elbow=vertical;" edge="1" parent="161" source="169" target="171">
                    <mxGeometry relative="1" as="geometry"/>
                </mxCell>
                <mxCell id="169" value="&lt;pre style=&quot;font-family: &amp;#34;jetbrains mono&amp;#34; , monospace&quot;&gt;Tracking&lt;/pre&gt;" style="rounded=0;whiteSpace=wrap;html=1;fontSize=14;labelBackgroundColor=none;fontColor=default;" parent="161" vertex="1">
                    <mxGeometry x="443" y="60" width="100" height="40" as="geometry"/>
                </mxCell>
                <mxCell id="168" value="" style="endArrow=classic;html=1;fontSize=14;exitX=1;exitY=0.5;exitDx=0;exitDy=0;labelBackgroundColor=none;fontColor=default;" parent="161" source="167" target="169" edge="1">
                    <mxGeometry width="50" height="50" relative="1" as="geometry">
                        <mxPoint x="343" y="60" as="sourcePoint"/>
                        <mxPoint x="453" y="90" as="targetPoint"/>
                    </mxGeometry>
                </mxCell>
                <mxCell id="173" value="" style="edgeStyle=none;html=1;fontSize=14;labelBackgroundColor=none;fontColor=default;" parent="161" source="171" target="172" edge="1">
                    <mxGeometry relative="1" as="geometry"/>
                </mxCell>
                <mxCell id="171" value="&lt;pre style=&quot;font-family: &amp;#34;jetbrains mono&amp;#34; , monospace ; font-size: 9pt&quot;&gt;&lt;span style=&quot;font-size: 9pt ; white-space: normal&quot;&gt;GetMatchedByTrack&lt;/span&gt;&lt;br&gt;&lt;/pre&gt;" style="rounded=0;whiteSpace=wrap;html=1;fontSize=14;labelBackgroundColor=none;fontColor=default;" parent="161" vertex="1">
                    <mxGeometry x="33" y="149" width="133" height="40" as="geometry"/>
                </mxCell>
                <mxCell id="175" value="" style="edgeStyle=none;html=1;fontSize=14;labelBackgroundColor=none;fontColor=default;" parent="161" source="172" target="174" edge="1">
                    <mxGeometry relative="1" as="geometry"/>
                </mxCell>
                <mxCell id="172" value="&lt;pre style=&quot;font-family: &amp;#34;jetbrains mono&amp;#34; , monospace ; font-size: 9pt&quot;&gt;&lt;pre style=&quot;font-family: &amp;#34;jetbrains mono&amp;#34; , monospace ; font-size: 9pt&quot;&gt;&lt;span style=&quot;font-size: 9pt ; white-space: normal&quot;&gt;SetIouByMatchedTrack&lt;/span&gt;&lt;br&gt;&lt;/pre&gt;&lt;/pre&gt;" style="whiteSpace=wrap;html=1;fontSize=14;rounded=0;labelBackgroundColor=none;fontColor=default;" parent="161" vertex="1">
                    <mxGeometry x="246" y="149" width="157" height="40" as="geometry"/>
                </mxCell>
                <mxCell id="174" value="&lt;pre style=&quot;font-family: &amp;#34;jetbrains mono&amp;#34; , monospace&quot;&gt;&lt;span style=&quot;font-size: medium ; white-space: normal&quot;&gt;BindByIOUs&lt;/span&gt;&lt;br&gt;&lt;/pre&gt;" style="whiteSpace=wrap;html=1;fontSize=14;rounded=0;labelBackgroundColor=none;fontColor=default;" parent="161" vertex="1">
                    <mxGeometry x="501.5" y="149" width="120" height="40" as="geometry"/>
                </mxCell>
                <mxCell id="176" value="&lt;pre style=&quot;font-family: &amp;quot;jetbrains mono&amp;quot;, monospace;&quot;&gt;&lt;font style=&quot;font-size: 14px&quot;&gt;binds&lt;/font&gt;&lt;/pre&gt;&lt;pre style=&quot;font-family: &amp;quot;jetbrains mono&amp;quot;, monospace;&quot;&gt;&lt;pre style=&quot;font-family: &amp;quot;jetbrains mono&amp;quot; , monospace&quot;&gt;&lt;font size=&quot;3&quot;&gt;matchedTrack&lt;/font&gt;&lt;/pre&gt;&lt;/pre&gt;" style="shape=parallelogram;perimeter=parallelogramPerimeter;whiteSpace=wrap;html=1;fixedSize=1;fontSize=14;rounded=0;labelBackgroundColor=none;fontColor=default;" parent="161" vertex="1">
                    <mxGeometry x="485.09000000000003" y="220" width="152.81" height="60" as="geometry"/>
                </mxCell>
                <mxCell id="177" value="" style="edgeStyle=none;html=1;fontSize=14;labelBackgroundColor=none;fontColor=default;" parent="161" source="174" target="176" edge="1">
                    <mxGeometry relative="1" as="geometry"/>
                </mxCell>
                <mxCell id="178" value="StaticMap::UpdateDeskMap" style="swimlane;fontSize=18;labelBackgroundColor=none;fontColor=default;" parent="1" vertex="1">
                    <mxGeometry x="870" y="-730" width="729" height="720" as="geometry"/>
                </mxCell>
                <mxCell id="181" value="" style="edgeStyle=none;html=1;fontSize=14;labelBackgroundColor=none;fontColor=default;" parent="178" source="179" target="180" edge="1">
                    <mxGeometry relative="1" as="geometry"/>
                </mxCell>
                <mxCell id="179" value="&lt;pre style=&quot;font-family: &amp;quot;jetbrains mono&amp;quot;, monospace; font-size: 14px;&quot;&gt;&lt;font style=&quot;font-size: 14px&quot;&gt;binds&lt;br style=&quot;font-size: 14px;&quot;&gt;&lt;/font&gt;&lt;pre style=&quot;font-family: &amp;quot;jetbrains mono&amp;quot;, monospace; font-size: 14px;&quot;&gt;&lt;font style=&quot;font-size: 14px;&quot;&gt;boxesDesk&lt;/font&gt;&lt;/pre&gt;&lt;/pre&gt;&lt;pre style=&quot;font-family: &amp;quot;jetbrains mono&amp;quot;, monospace; font-size: 14px;&quot;&gt;&lt;pre style=&quot;font-family: &amp;quot;jetbrains mono&amp;quot;, monospace; font-size: 14px;&quot;&gt;&lt;font style=&quot;font-size: 14px;&quot;&gt;statuses&lt;/font&gt;&lt;/pre&gt;&lt;pre style=&quot;font-family: &amp;quot;jetbrains mono&amp;quot;, monospace; font-size: 14px;&quot;&gt;&lt;font style=&quot;font-size: 14px;&quot;&gt;matchedTrack&lt;/font&gt;&lt;/pre&gt;&lt;/pre&gt;" style="shape=parallelogram;perimeter=parallelogramPerimeter;whiteSpace=wrap;html=1;fixedSize=1;fontSize=14;labelBackgroundColor=none;fontColor=default;" parent="178" vertex="1">
                    <mxGeometry x="30" y="50" width="170" height="130" as="geometry"/>
                </mxCell>
                <mxCell id="183" value="" style="edgeStyle=none;html=1;fontSize=14;labelBackgroundColor=none;fontColor=default;entryX=0.5;entryY=0;entryDx=0;entryDy=0;" parent="178" source="180" edge="1" target="184">
                    <mxGeometry relative="1" as="geometry">
                        <mxPoint x="335" y="225" as="targetPoint"/>
                    </mxGeometry>
                </mxCell>
                <mxCell id="180" value="&lt;font style=&quot;font-size: 14px&quot;&gt;box : boxes&lt;/font&gt;" style="whiteSpace=wrap;html=1;fontSize=14;labelBackgroundColor=none;fontColor=default;" parent="178" vertex="1">
                    <mxGeometry x="275" y="97.5" width="120" height="35" as="geometry"/>
                </mxCell>
                <mxCell id="186" value="" style="edgeStyle=none;html=1;fontSize=14;labelBackgroundColor=none;fontColor=default;exitX=1;exitY=0.5;exitDx=0;exitDy=0;entryX=0;entryY=0.5;entryDx=0;entryDy=0;" parent="178" source="184" target="185" edge="1">
                    <mxGeometry relative="1" as="geometry"/>
                </mxCell>
                <mxCell id="234" value="Y" style="edgeLabel;html=1;align=center;verticalAlign=middle;resizable=0;points=[];fontSize=14;fontColor=default;" vertex="1" connectable="0" parent="186">
                    <mxGeometry x="-0.175" relative="1" as="geometry">
                        <mxPoint as="offset"/>
                    </mxGeometry>
                </mxCell>
                <mxCell id="189" value="" style="edgeStyle=none;html=1;fontSize=14;labelBackgroundColor=none;fontColor=default;" parent="178" source="184" edge="1" target="191">
                    <mxGeometry relative="1" as="geometry">
                        <mxPoint x="335" y="450" as="targetPoint"/>
                    </mxGeometry>
                </mxCell>
                <mxCell id="230" value="N" style="edgeLabel;html=1;align=center;verticalAlign=middle;resizable=0;points=[];fontSize=14;fontColor=default;" vertex="1" connectable="0" parent="189">
                    <mxGeometry x="-0.3833" y="-1" relative="1" as="geometry">
                        <mxPoint as="offset"/>
                    </mxGeometry>
                </mxCell>
                <mxCell id="184" value="&lt;pre style=&quot;font-family: &amp;quot;jetbrains mono&amp;quot;, monospace; font-size: 14px;&quot;&gt;&lt;font style=&quot;font-size: 14px&quot;&gt;matchedTrack&lt;span style=&quot;font-size: 14px;&quot;&gt;[&lt;/span&gt;i&lt;span style=&quot;font-size: 14px;&quot;&gt;] &lt;/span&gt;&amp;gt; -&lt;span style=&quot;font-size: 14px;&quot;&gt;1&lt;/span&gt;&lt;/font&gt;&lt;/pre&gt;" style="rhombus;whiteSpace=wrap;html=1;fontSize=14;labelBackgroundColor=none;fontColor=default;" parent="178" vertex="1">
                    <mxGeometry x="243.75" y="180" width="182.5" height="70" as="geometry"/>
                </mxCell>
                <mxCell id="227" style="edgeStyle=orthogonalEdgeStyle;rounded=0;html=1;exitX=1;exitY=0.5;exitDx=0;exitDy=0;entryX=1;entryY=0.5;entryDx=0;entryDy=0;labelBackgroundColor=none;fontSize=14;fontColor=default;strokeColor=#000000;elbow=vertical;" edge="1" parent="178" source="185" target="198">
                    <mxGeometry relative="1" as="geometry"/>
                </mxCell>
                <mxCell id="185" value="&lt;pre style=&quot;font-family: &amp;quot;jetbrains mono&amp;quot;, monospace; font-size: 14px;&quot;&gt;&lt;font style=&quot;font-size: 14px&quot;&gt;&lt;span style=&quot;font-size: 14px;&quot;&gt;StaticMap&lt;/span&gt;::&lt;/font&gt;&lt;/pre&gt;&lt;pre style=&quot;font-family: &amp;quot;jetbrains mono&amp;quot;, monospace; font-size: 14px;&quot;&gt;&lt;span style=&quot;font-size: 14px;&quot;&gt;&lt;font style=&quot;font-size: 14px;&quot;&gt;UpdateMapByBox&lt;/font&gt;&lt;/span&gt;&lt;/pre&gt;" style="whiteSpace=wrap;html=1;fontSize=14;labelBackgroundColor=none;fontColor=default;" parent="178" vertex="1">
                    <mxGeometry x="506" y="185" width="160" height="60" as="geometry"/>
                </mxCell>
                <mxCell id="193" value="" style="edgeStyle=none;html=1;fontSize=14;labelBackgroundColor=none;fontColor=default;exitX=1;exitY=0.5;exitDx=0;exitDy=0;entryX=0;entryY=0.5;entryDx=0;entryDy=0;" parent="178" source="191" target="192" edge="1">
                    <mxGeometry relative="1" as="geometry"/>
                </mxCell>
                <mxCell id="231" value="Y" style="edgeLabel;html=1;align=center;verticalAlign=middle;resizable=0;points=[];fontSize=14;fontColor=default;" vertex="1" connectable="0" parent="193">
                    <mxGeometry x="-0.1222" y="1" relative="1" as="geometry">
                        <mxPoint as="offset"/>
                    </mxGeometry>
                </mxCell>
                <mxCell id="196" value="" style="edgeStyle=none;html=1;fontSize=14;labelBackgroundColor=none;fontColor=default;" parent="178" source="191" target="195" edge="1">
                    <mxGeometry relative="1" as="geometry"/>
                </mxCell>
                <mxCell id="232" value="N" style="edgeLabel;html=1;align=center;verticalAlign=middle;resizable=0;points=[];fontSize=14;fontColor=default;" vertex="1" connectable="0" parent="196">
                    <mxGeometry x="-0.3933" y="1" relative="1" as="geometry">
                        <mxPoint as="offset"/>
                    </mxGeometry>
                </mxCell>
                <mxCell id="191" value="&lt;pre style=&quot;font-family: &amp;quot;jetbrains mono&amp;quot;, monospace; font-size: 14px;&quot;&gt;&lt;font style=&quot;font-size: 14px&quot;&gt;binds&lt;span style=&quot;font-size: 14px;&quot;&gt;[&lt;/span&gt;i&lt;span style=&quot;font-size: 14px;&quot;&gt;] &lt;/span&gt;&lt;/font&gt;&amp;gt; -&lt;span style=&quot;white-space: normal; font-size: 14px;&quot;&gt;1&lt;/span&gt;&lt;/pre&gt;" style="rhombus;whiteSpace=wrap;html=1;fontSize=14;labelBackgroundColor=none;fontColor=default;" parent="178" vertex="1">
                    <mxGeometry x="271.25" y="290" width="127.5" height="77" as="geometry"/>
                </mxCell>
                <mxCell id="228" style="edgeStyle=orthogonalEdgeStyle;rounded=0;html=1;exitX=0.5;exitY=1;exitDx=0;exitDy=0;entryX=1;entryY=0.5;entryDx=0;entryDy=0;labelBackgroundColor=none;fontSize=14;fontColor=default;strokeColor=#000000;elbow=vertical;" edge="1" parent="178" source="192" target="198">
                    <mxGeometry relative="1" as="geometry"/>
                </mxCell>
                <mxCell id="192" value="&lt;pre style=&quot;font-family: &amp;quot;jetbrains mono&amp;quot;, monospace; font-size: 14px;&quot;&gt;&lt;font style=&quot;font-size: 14px&quot;&gt;removeIDs&lt;/font&gt;&lt;/pre&gt;&lt;pre style=&quot;font-family: &amp;quot;jetbrains mono&amp;quot;, monospace; font-size: 14px;&quot;&gt;&lt;pre style=&quot;font-family: &amp;quot;jetbrains mono&amp;quot;, monospace; font-size: 14px;&quot;&gt;&lt;font style=&quot;font-size: 14px;&quot;&gt;updateIDs&lt;/font&gt;&lt;/pre&gt;&lt;pre style=&quot;font-family: &amp;quot;jetbrains mono&amp;quot;, monospace; font-size: 14px;&quot;&gt;&lt;pre style=&quot;font-family: &amp;quot;jetbrains mono&amp;quot;, monospace; font-size: 14px;&quot;&gt;UpdateMapByBox&lt;/pre&gt;&lt;/pre&gt;&lt;/pre&gt;" style="whiteSpace=wrap;html=1;fontSize=14;labelBackgroundColor=none;fontColor=default;" parent="178" vertex="1">
                    <mxGeometry x="520" y="281.57" width="146.25" height="93.87" as="geometry"/>
                </mxCell>
                <mxCell id="199" value="" style="edgeStyle=none;html=1;fontSize=14;labelBackgroundColor=none;fontColor=default;" parent="178" source="195" target="198" edge="1">
                    <mxGeometry relative="1" as="geometry"/>
                </mxCell>
                <mxCell id="195" value="&lt;pre style=&quot;font-family: &amp;quot;jetbrains mono&amp;quot;, monospace; font-size: 14px;&quot;&gt;&lt;font style=&quot;font-size: 14px&quot;&gt;&lt;span style=&quot;font-size: 14px;&quot;&gt;StaticMap&lt;/span&gt;::&lt;/font&gt;&lt;/pre&gt;&lt;pre style=&quot;font-family: &amp;quot;jetbrains mono&amp;quot;, monospace; font-size: 14px;&quot;&gt;&lt;span style=&quot;font-size: 14px;&quot;&gt;&lt;font style=&quot;font-size: 14px;&quot;&gt;AddRegionMap&lt;/font&gt;&lt;/span&gt;&lt;/pre&gt;" style="whiteSpace=wrap;html=1;fontSize=14;labelBackgroundColor=none;fontColor=default;" parent="178" vertex="1">
                    <mxGeometry x="275" y="440" width="120" height="60" as="geometry"/>
                </mxCell>
                <mxCell id="203" value="" style="edgeStyle=none;html=1;fontSize=14;labelBackgroundColor=none;fontColor=default;" parent="178" source="198" target="202" edge="1">
                    <mxGeometry relative="1" as="geometry"/>
                </mxCell>
                <mxCell id="233" value="Y" style="edgeLabel;html=1;align=center;verticalAlign=middle;resizable=0;points=[];fontSize=14;fontColor=default;" vertex="1" connectable="0" parent="203">
                    <mxGeometry x="-0.316" y="1" relative="1" as="geometry">
                        <mxPoint as="offset"/>
                    </mxGeometry>
                </mxCell>
                <mxCell id="223" style="edgeStyle=orthogonalEdgeStyle;rounded=0;html=1;exitX=0;exitY=0.5;exitDx=0;exitDy=0;entryX=0;entryY=0.5;entryDx=0;entryDy=0;labelBackgroundColor=none;fontSize=14;fontColor=default;strokeColor=#000000;elbow=vertical;" edge="1" parent="178" source="198" target="180">
                    <mxGeometry relative="1" as="geometry">
                        <Array as="points">
                            <mxPoint x="236" y="555"/>
                            <mxPoint x="236" y="115"/>
                        </Array>
                    </mxGeometry>
                </mxCell>
                <mxCell id="224" value="N" style="edgeLabel;html=1;align=center;verticalAlign=middle;resizable=0;points=[];fontSize=14;fontColor=default;" vertex="1" connectable="0" parent="223">
                    <mxGeometry x="0.22" relative="1" as="geometry">
                        <mxPoint as="offset"/>
                    </mxGeometry>
                </mxCell>
                <mxCell id="198" value="box == boxes.end" style="rhombus;whiteSpace=wrap;html=1;fontSize=14;labelBackgroundColor=none;fontColor=default;" parent="178" vertex="1">
                    <mxGeometry x="271.25" y="530" width="130" height="50" as="geometry"/>
                </mxCell>
                <mxCell id="202" value="&lt;pre style=&quot;font-family: &amp;quot;jetbrains mono&amp;quot;, monospace; font-size: 14px;&quot;&gt;&lt;font style=&quot;font-size: 14px&quot;&gt;&lt;span style=&quot;font-size: 14px;&quot;&gt;StaticMap&lt;/span&gt;::&lt;/font&gt;RemoveByIDs&lt;/pre&gt;&lt;pre style=&quot;font-family: &amp;quot;jetbrains mono&amp;quot;, monospace; font-size: 14px;&quot;&gt;&lt;pre style=&quot;font-family: &amp;quot;jetbrains mono&amp;quot;, monospace; font-size: 14px;&quot;&gt;&lt;span style=&quot;font-size: 14px;&quot;&gt;StaticMap&lt;/span&gt;::UpdateByIDs&lt;/pre&gt;&lt;/pre&gt;" style="whiteSpace=wrap;html=1;fontSize=14;labelBackgroundColor=none;fontColor=default;" parent="178" vertex="1">
                    <mxGeometry x="212.5" y="630" width="245" height="60" as="geometry"/>
                </mxCell>
                <mxCell id="94" value="&lt;pre style=&quot;font-family: &amp;quot;jetbrains mono&amp;quot;, monospace; font-size: 9pt;&quot;&gt;Bind()&lt;/pre&gt;" style="whiteSpace=wrap;html=1;labelBackgroundColor=none;strokeColor=#000000;fontColor=default;" parent="1" vertex="1">
                    <mxGeometry x="141" y="-927.01" width="120" height="33.69" as="geometry"/>
                </mxCell>
                <mxCell id="95" value="" style="edgeStyle=none;html=1;labelBackgroundColor=none;exitX=0.5;exitY=1;exitDx=0;exitDy=0;strokeColor=#000000;fontColor=default;" parent="1" target="94" edge="1" source="116">
                    <mxGeometry relative="1" as="geometry">
                        <mxPoint x="201" y="-886.8158252427183" as="sourcePoint"/>
                    </mxGeometry>
                </mxCell>
                <mxCell id="96" value="&lt;pre style=&quot;font-family: &amp;quot;jetbrains mono&amp;quot;, monospace; font-size: 9pt;&quot;&gt;&lt;pre style=&quot;font-family: &amp;quot;jetbrains mono&amp;quot; , monospace ; font-size: 9pt&quot;&gt;&lt;span style=&quot;font-family: &amp;quot;jetbrains mono&amp;quot; , monospace ; font-size: 9pt&quot;&gt;UpdateDeskMap&lt;/span&gt;()&lt;/pre&gt;&lt;/pre&gt;" style="whiteSpace=wrap;html=1;labelBackgroundColor=none;strokeColor=#000000;fontColor=default;" parent="1" vertex="1">
                    <mxGeometry x="136" y="-877.01" width="130" height="35.73" as="geometry"/>
                </mxCell>
                <mxCell id="97" value="" style="edgeStyle=none;html=1;labelBackgroundColor=none;strokeColor=#000000;fontColor=default;" parent="1" source="94" target="96" edge="1">
                    <mxGeometry relative="1" as="geometry"/>
                </mxCell>
                <mxCell id="107" value="&lt;pre style=&quot;font-family: &amp;quot;jetbrains mono&amp;quot;, monospace; font-size: 9pt;&quot;&gt;&lt;span style=&quot;&quot;&gt;deskMap&lt;/span&gt;&lt;/pre&gt;&lt;pre style=&quot;font-family: &amp;quot;jetbrains mono&amp;quot;, monospace; font-size: 9pt;&quot;&gt;&lt;pre style=&quot;font-family: &amp;quot;jetbrains mono&amp;quot; , monospace ; font-size: 9pt&quot;&gt;&lt;span style=&quot;&quot;&gt;pointStatus&lt;/span&gt;&lt;/pre&gt;&lt;/pre&gt;" style="shape=parallelogram;perimeter=parallelogramPerimeter;whiteSpace=wrap;html=1;fixedSize=1;fontSize=18;labelBackgroundColor=none;strokeColor=#000000;fontColor=default;" parent="1" vertex="1">
                    <mxGeometry x="143" y="-824" width="116" height="44.76" as="geometry"/>
                </mxCell>
                <mxCell id="112" value="" style="endArrow=classic;html=1;exitX=0.5;exitY=1;exitDx=0;exitDy=0;entryX=0.5;entryY=0;entryDx=0;entryDy=0;labelBackgroundColor=none;strokeColor=#000000;fontColor=default;" parent="1" source="96" target="107" edge="1">
                    <mxGeometry width="50" height="50" relative="1" as="geometry">
                        <mxPoint x="217" y="-660.6470425690813" as="sourcePoint"/>
                        <mxPoint x="267" y="-705.6806497386109" as="targetPoint"/>
                    </mxGeometry>
                </mxCell>
                <mxCell id="117" value="" style="edgeStyle=none;html=1;labelBackgroundColor=none;strokeColor=#000000;fontColor=default;" parent="1" source="113" target="116" edge="1">
                    <mxGeometry relative="1" as="geometry"/>
                </mxCell>
                <mxCell id="113" value="&lt;span&gt;FilterDeskBox()&lt;/span&gt;" style="whiteSpace=wrap;html=1;labelBackgroundColor=none;strokeColor=#000000;fontColor=default;" parent="1" vertex="1">
                    <mxGeometry x="141" y="-1023.5868932038834" width="120" height="26.188543689320387" as="geometry"/>
                </mxCell>
                <mxCell id="114" value="&lt;font style=&quot;font-size: 14px&quot;&gt;boxes&lt;/font&gt;" style="shape=parallelogram;perimeter=parallelogramPerimeter;whiteSpace=wrap;html=1;fixedSize=1;labelBackgroundColor=none;strokeColor=#000000;fontColor=default;" parent="1" vertex="1">
                    <mxGeometry x="141" y="-1097.01" width="120" height="32.06" as="geometry"/>
                </mxCell>
                <mxCell id="115" value="" style="edgeStyle=none;html=1;labelBackgroundColor=none;strokeColor=#000000;fontColor=default;" parent="1" source="114" target="113" edge="1">
                    <mxGeometry relative="1" as="geometry"/>
                </mxCell>
                <mxCell id="116" value="&lt;pre style=&quot;font-family: &amp;quot;jetbrains mono&amp;quot;, monospace; font-size: 9pt;&quot;&gt;SetPointsStatus()&lt;/pre&gt;" style="whiteSpace=wrap;html=1;labelBackgroundColor=none;strokeColor=#000000;fontColor=default;" parent="1" vertex="1">
                    <mxGeometry x="133" y="-977.8740776699029" width="136" height="28.946601941747574" as="geometry"/>
                </mxCell>
                <mxCell id="110" value="FreshDeskMap" style="swimlane;fontSize=18;labelBackgroundColor=none;fontColor=default;" parent="1" vertex="1">
                    <mxGeometry x="20" y="-1141.67" width="330" height="393.01" as="geometry"/>
                </mxCell>
                <mxCell id="66" value="FilterDeskBox()" style="swimlane;fontSize=18;startSize=23;labelBackgroundColor=none;fontColor=default;" parent="1" vertex="1">
                    <mxGeometry x="370" y="-1141.67" width="420" height="411.67" as="geometry"/>
                </mxCell>
                <mxCell id="74" value="" style="edgeStyle=none;html=1;fontSize=14;labelBackgroundColor=none;fontColor=default;" parent="66" source="67" target="73" edge="1">
                    <mxGeometry relative="1" as="geometry"/>
                </mxCell>
                <mxCell id="67" value="&lt;pre style=&quot;font-family: &amp;quot;jetbrains mono&amp;quot;, monospace;&quot;&gt;&lt;font style=&quot;font-size: 14px&quot;&gt;boxes&lt;/font&gt;&lt;/pre&gt;" style="shape=parallelogram;perimeter=parallelogramPerimeter;whiteSpace=wrap;html=1;fixedSize=1;fontSize=18;labelBackgroundColor=none;fontColor=default;" parent="66" vertex="1">
                    <mxGeometry x="35.00074074074075" y="58.450704225352105" width="148.88888888888889" height="32.95774647887324" as="geometry"/>
                </mxCell>
                <mxCell id="73" value="&lt;font style=&quot;font-size: 14px&quot;&gt;box : boxes&lt;/font&gt;" style="whiteSpace=wrap;html=1;fontSize=18;labelBackgroundColor=none;fontColor=default;" parent="66" vertex="1">
                    <mxGeometry x="222.45999999999998" y="58.450704225352105" width="148.88888888888889" height="32.95774647887324" as="geometry"/>
                </mxCell>
                <mxCell id="78" value="" style="edgeStyle=none;html=1;fontSize=14;labelBackgroundColor=none;fontColor=default;" parent="66" source="75" target="77" edge="1">
                    <mxGeometry relative="1" as="geometry"/>
                </mxCell>
                <mxCell id="213" value="N" style="edgeLabel;html=1;align=center;verticalAlign=middle;resizable=0;points=[];fontColor=default;" vertex="1" connectable="0" parent="78">
                    <mxGeometry x="-0.1836" relative="1" as="geometry">
                        <mxPoint as="offset"/>
                    </mxGeometry>
                </mxCell>
                <mxCell id="211" style="edgeStyle=orthogonalEdgeStyle;rounded=0;html=1;exitX=0;exitY=0.5;exitDx=0;exitDy=0;entryX=0;entryY=0.5;entryDx=0;entryDy=0;labelBackgroundColor=none;fontColor=default;strokeColor=#000000;elbow=vertical;" edge="1" parent="66" source="75" target="145">
                    <mxGeometry relative="1" as="geometry">
                        <Array as="points">
                            <mxPoint x="192" y="153"/>
                            <mxPoint x="192" y="303"/>
                        </Array>
                    </mxGeometry>
                </mxCell>
                <mxCell id="212" value="Y" style="edgeLabel;html=1;align=center;verticalAlign=middle;resizable=0;points=[];fontColor=default;" vertex="1" connectable="0" parent="211">
                    <mxGeometry x="-0.3634" y="1" relative="1" as="geometry">
                        <mxPoint as="offset"/>
                    </mxGeometry>
                </mxCell>
                <mxCell id="75" value="&lt;pre style=&quot;font-family: &amp;#34;jetbrains mono&amp;#34; , monospace ; font-size: 9pt&quot;&gt;&lt;span style=&quot;font-size: 9pt&quot;&gt;IsD&lt;/span&gt;&lt;span style=&quot;font-size: 9pt ; white-space: normal&quot;&gt;eskRect&lt;/span&gt;&lt;br&gt;&lt;/pre&gt;" style="rhombus;whiteSpace=wrap;html=1;fontSize=14;labelBackgroundColor=none;fontColor=default;" parent="66" vertex="1">
                    <mxGeometry x="220.51999999999998" y="135.35" width="152.78" height="34.65" as="geometry"/>
                </mxCell>
                <mxCell id="77" value="&lt;pre style=&quot;font-family: &amp;quot;jetbrains mono&amp;quot;, monospace; font-size: 9pt;&quot;&gt;&lt;pre style=&quot;font-family: &amp;quot;jetbrains mono&amp;quot; , monospace ; font-size: 9pt&quot;&gt;boxesDesk.push_back(box)&lt;/pre&gt;&lt;/pre&gt;" style="whiteSpace=wrap;html=1;fontSize=14;labelBackgroundColor=none;fontColor=default;" parent="66" vertex="1">
                    <mxGeometry x="209.13" y="214.27" width="176.57" height="32.96" as="geometry"/>
                </mxCell>
                <mxCell id="144" value="" style="endArrow=classic;html=1;fontSize=14;exitX=0.5;exitY=1;exitDx=0;exitDy=0;entryX=0.5;entryY=0;entryDx=0;entryDy=0;labelBackgroundColor=none;fontColor=default;" parent="66" source="73" target="75" edge="1">
                    <mxGeometry width="50" height="50" relative="1" as="geometry">
                        <mxPoint x="152" y="173.80281690140842" as="sourcePoint"/>
                        <mxPoint x="202" y="146.33802816901408" as="targetPoint"/>
                    </mxGeometry>
                </mxCell>
                <mxCell id="145" value="box == boxes.end()" style="rhombus;whiteSpace=wrap;html=1;fontSize=14;labelBackgroundColor=none;fontColor=default;" parent="66" vertex="1">
                    <mxGeometry x="208.10000000000002" y="274.27" width="177.6" height="55.73" as="geometry"/>
                </mxCell>
                <mxCell id="146" value="" style="endArrow=classic;html=1;fontSize=14;exitX=0.5;exitY=1;exitDx=0;exitDy=0;entryX=0.5;entryY=0;entryDx=0;entryDy=0;labelBackgroundColor=none;fontColor=default;" parent="66" source="77" target="145" edge="1">
                    <mxGeometry width="50" height="50" relative="1" as="geometry">
                        <mxPoint x="162" y="322.112676056338" as="sourcePoint"/>
                        <mxPoint x="212" y="294.6478873239437" as="targetPoint"/>
                    </mxGeometry>
                </mxCell>
                <mxCell id="151" value="" style="endArrow=classic;html=1;fontSize=14;exitX=0;exitY=0.5;exitDx=0;exitDy=0;labelBackgroundColor=none;entryX=0;entryY=0.5;entryDx=0;entryDy=0;edgeStyle=orthogonalEdgeStyle;fontColor=default;elbow=vertical;rounded=0;" parent="66" source="145" edge="1" target="73">
                    <mxGeometry width="50" height="50" relative="1" as="geometry">
                        <mxPoint x="162" y="327.60563380281684" as="sourcePoint"/>
                        <mxPoint x="32" y="80.4225352112676" as="targetPoint"/>
                        <Array as="points">
                            <mxPoint x="180" y="302"/>
                            <mxPoint x="180" y="75"/>
                        </Array>
                    </mxGeometry>
                </mxCell>
                <mxCell id="152" value="N" style="edgeLabel;html=1;align=center;verticalAlign=middle;resizable=0;points=[];fontSize=14;labelBackgroundColor=none;fontColor=default;" parent="151" vertex="1" connectable="0">
                    <mxGeometry x="-0.8478" relative="1" as="geometry">
                        <mxPoint as="offset"/>
                    </mxGeometry>
                </mxCell>
                <mxCell id="87" value="&lt;pre style=&quot;font-size: 9pt; font-family: &amp;quot;jetbrains mono&amp;quot;, monospace;&quot;&gt;boxesDesk&lt;/pre&gt;" style="shape=parallelogram;perimeter=parallelogramPerimeter;whiteSpace=wrap;html=1;fixedSize=1;fontSize=14;labelBackgroundColor=none;fontColor=default;" parent="66" vertex="1">
                    <mxGeometry x="236.91000000000003" y="364.27" width="120" height="25.73" as="geometry"/>
                </mxCell>
                <mxCell id="149" value="" style="endArrow=classic;html=1;fontSize=14;exitX=0.5;exitY=1;exitDx=0;exitDy=0;labelBackgroundColor=none;fontColor=default;" parent="66" source="145" target="87" edge="1">
                    <mxGeometry width="50" height="50" relative="1" as="geometry">
                        <mxPoint x="162" y="347.9319718309859" as="sourcePoint"/>
                        <mxPoint x="212" y="320.46718309859153" as="targetPoint"/>
                    </mxGeometry>
                </mxCell>
                <mxCell id="150" value="Y" style="edgeLabel;html=1;align=center;verticalAlign=middle;resizable=0;points=[];fontSize=14;labelBackgroundColor=none;fontColor=default;" parent="149" vertex="1" connectable="0">
                    <mxGeometry x="-0.59" y="3" relative="1" as="geometry">
                        <mxPoint as="offset"/>
                    </mxGeometry>
                </mxCell>
            </root>
        </mxGraphModel>
    </diagram>
</mxfile>